<?xml version="1.0"?>
<svg xmlns="http://www.w3.org/2000/svg" xmlns:xlink="http://www.w3.org/1999/xlink" id="Layer_1" data-name="Layer 1" viewBox="0 0 512 512" width="512" height="512"><defs><linearGradient id="linear-gradient" x1="168.174" y1="495.759" x2="168.174" y2="13.877" gradientUnits="userSpaceOnUse"><stop offset="0.322" stop-color="#a163f5"/><stop offset="0.466" stop-color="#b074ee"/><stop offset="0.752" stop-color="#d8a1dd"/><stop offset="0.898" stop-color="#efbad3"/></linearGradient><linearGradient id="linear-gradient-2" x1="256" y1="495.759" x2="256" y2="13.877" xlink:href="#linear-gradient"/><linearGradient id="linear-gradient-3" x1="384.708" y1="495.759" x2="384.708" y2="13.877" xlink:href="#linear-gradient"/></defs><title>safe lock money 2</title><path d="M187.683,175.8a6,6,0,0,0-6,6,13.509,13.509,0,1,1-27.018,0,6,6,0,0,0-12,0,25.509,25.509,0,0,0,51.018,0A6,6,0,0,0,187.683,175.8Z" style="fill:url(#linear-gradient)"/><path d="M457,195.223a6,6,0,1,0-12,0,27.242,27.242,0,0,1-23.525,26.949C412.393,150.353,345.133,94.4,263.76,94.4a190.818,190.818,0,0,0-29.042,2.23,74.837,74.837,0,0,0-62.252-33.342,6,6,0,0,0-5.737,7.758l1.688,5.511a92.925,92.925,0,0,1,3.837,34.456,157.019,157.019,0,0,0-74.086,61.43L91.4,183H72.476A17.722,17.722,0,0,0,55,200.738V273.6A17.435,17.435,0,0,0,72.476,291H91.745a131.348,131.348,0,0,0,19.683,28.362,93.3,93.3,0,0,1,23.9,62.723A22.941,22.941,0,0,0,158.25,405h23.536a23.015,23.015,0,0,0,22.921-23,11,11,0,0,1,10.921-11h43.929a11,11,0,0,1,10.921,11A23.014,23.014,0,0,0,293.4,405H317v17.717A26.383,26.383,0,0,0,343.129,449h83.157C440.623,449,452,437.053,452,422.717V339.559c0-13.877-11-25.25-24-25.964V284.582a42.833,42.833,0,0,0-7.189-23.485,133.232,133.232,0,0,0,1.806-22.327c0-1.549-.08-3.09-.133-4.627A39.218,39.218,0,0,0,457,195.223ZM354,314V284.582a31,31,0,0,1,62,0V314Zm-60.6,79a11,11,0,0,1-10.919-11,23.016,23.016,0,0,0-22.921-23H215.628a23.015,23.015,0,0,0-22.921,23,11,11,0,0,1-10.921,11H158.25a10.913,10.913,0,0,1-10.921-10.9,105.263,105.263,0,0,0-27-70.76,118.558,118.558,0,0,1-19.421-28.868A6.026,6.026,0,0,0,95.484,279H72.476A5.421,5.421,0,0,1,67,273.6V200.738A5.712,5.712,0,0,1,72.476,195H94.7a5.88,5.88,0,0,0,5.07-2.66l8.535-13.42a145.08,145.08,0,0,1,71.482-57.994,5.919,5.919,0,0,0,4.043-4.979,104.841,104.841,0,0,0-3.131-40.13,62.952,62.952,0,0,1,54.616,62.318,6,6,0,1,0,12,0,74.374,74.374,0,0,0-6.419-30.272,181.018,181.018,0,0,1,22.86-1.47c80.929,0,146.77,59.384,146.77,132.375,0,3.719-.175,7.441-.516,11.143a42.352,42.352,0,0,0-25.187-8.277A42.893,42.893,0,0,0,342,284.582V313.6a26.14,26.14,0,0,0-25,25.964V393ZM440,423a14,14,0,0,1-14,14H343a14,14,0,0,1-14-14V340a14,14,0,0,1,14-14h83a14,14,0,0,1,14,14Z" style="fill:url(#linear-gradient-2)"/><path d="M405.916,355h.065a5.964,5.964,0,1,0,.064-11.928l-30.1-.133L363.887,343h-.066a5.851,5.851,0,0,0-6,5.757,5.924,5.924,0,0,0,5.936,5.975l12.063.085a11.983,11.983,0,0,1,8.51,3.61,12.836,12.836,0,0,1,1.911,2.691L363.693,361h-.065a5.9,5.9,0,1,0-.064,11.8l22.549.208a12.314,12.314,0,0,1-10.551,6.042L363.5,379h-.064a5.9,5.9,0,0,0-4.167,10.18l29.845,28.792a6.007,6.007,0,0,0,8.334-8.652l-19.166-18.506a23.909,23.909,0,0,0,14.261-6.739,24.231,24.231,0,0,0,6.421-11.056l6.759-.019h.065a5.932,5.932,0,1,0,.064-11.863l-6.759-.049a24.076,24.076,0,0,0-2.431-6.151Z" style="fill:url(#linear-gradient-3)"/></svg>
